<?xml version="1.0" standalone="no"?>
<!DOCTYPE svg PUBLIC "-//W3C//DTD SVG 1.1//EN" "http://www.w3.org/Graphics/SVG/1.1/DTD/svg11.dtd" >
<!--
2013-9-30: Created.
-->
<svg>
<metadata>
Created by iconfont
</metadata>
<defs>

<font id="iconfont" horiz-adv-x="1024" >
  <font-face
    font-family="iconfont"
    font-weight="500"
    font-stretch="normal"
    units-per-em="1024"
    ascent="896"
    descent="-128"
  />
    <missing-glyph />
    
    <glyph glyph-name="x" unicode="x" horiz-adv-x="1001"
d="M281 543q-27 -1 -53 -1h-83q-18 0 -36.5 -6t-32.5 -18.5t-23 -32t-9 -45.5v-76h912v41q0 16 -0.5 30t-0.5 18q0 13 -5 29t-17 29.5t-31.5 22.5t-49.5 9h-133v-97h-438v97zM955 310v-52q0 -23 0.5 -52t0.5 -58t-10.5 -47.5t-26 -30t-33 -16t-31.5 -4.5q-14 -1 -29.5 -0.5
t-29.5 0.5h-32l-45 128h-439l-44 -128h-29h-34q-20 0 -45 1q-25 0 -41 9.5t-25.5 23t-13.5 29.5t-4 30v167h911zM163 247q-12 0 -21 -8.5t-9 -21.5t9 -21.5t21 -8.5q13 0 22 8.5t9 21.5t-9 21.5t-22 8.5zM316 123q-8 -26 -14 -48q-5 -19 -10.5 -37t-7.5 -25t-3 -15t1 -14.5
t9.5 -10.5t21.5 -4h37h67h81h80h64h36q23 0 34 12t2 38q-5 13 -9.5 30.5t-9.5 34.5q-5 19 -11 39h-368zM336 498v228q0 11 2.5 23t10 21.5t20.5 15.5t34 6h188q31 0 51.5 -14.5t20.5 -52.5v-227h-327z" />
    

    
    <glyph glyph-name="shanchu" unicode="&#58908;" d="M731.918024 631.466274 293.285433 631.466274c-40.383364 0-73.105944-32.720216-73.105944-73.102948l0-24.367991 584.843455 0 0 24.367991C805.023968 598.746058 772.302411 631.466274 731.918024 631.466274M604.221575 680.201232l10.756412-76.909647L410.22547 603.291584l10.755389 76.909647L604.221575 680.201232M610.076149 728.936189l-194.947818 0c-20.108791 0-38.813548-16.276708-41.621615-36.217876l-14.254216-101.968369c-2.78453-19.916609 11.399075-36.19434 31.507865-36.19434l243.684773 0c20.107767 0 34.292396 16.276708 31.484328 36.217876l-14.255239 101.968369C648.887651 712.659481 630.183917 728.936189 610.076149 728.936189M744.102007 485.261401 281.100427 485.261401c-26.795347 0-46.761893-21.845541-44.334511-48.544623L276.699007-2.278511c2.402821-26.700105 26.344051-48.544623 53.139398-48.544623l365.527671 0c26.795347 0 50.735553 21.845541 53.139398 48.544623l39.932067 438.995289C790.8639 463.41586 770.897354 485.261401 744.102007 485.261401M415.128331 46.646781l-73.105944 0-24.368989 341.144704 97.473909 0L415.127308 46.646781zM561.339195 46.646781l-97.473909 0L463.865286 387.791485l97.473909 0L561.339195 46.646781zM683.18107 46.646781l-73.105944 0L610.075126 387.791485l97.473909 0L683.18107 46.646781z"  horiz-adv-x="1024" />

    
    <glyph glyph-name="add" unicode="&#58881;" d="M512-212c-282.752 0-512 229.248-512 512s229.248 512 512 512 512-229.248 512-512S794.752-212 512-212zM512 684C299.968 684 128 512.032 128 300s171.968-384 384-384 384 171.968 384 384S724.032 684 512 684zM704 236 576 236l0-128c0-35.392-28.608-64-64-64-35.328 0-64 28.608-64 64L448 236 320 236C284.672 236 256 264.608 256 300c0 35.328 28.672 64 64 64l128 0L448 492c0 35.328 28.672 64 64 64 35.392 0 64-28.672 64-64l0-128 128 0c35.392 0 64-28.672 64-64C768 264.608 739.392 236 704 236z"  horiz-adv-x="1024" />

    
    <glyph glyph-name="diyxuanchuanye" unicode="&#58917;" d="M129.167 742.887l0-885.721 775.006 0L904.173 742.887 129.167 742.887 129.167 742.887zM382.097 525.663l101.249-121.121 126.212 217.002 181.077-321.52L244.753 300.024 382.097 525.663 382.097 525.663zM793.455 133.954 239.879 133.954l0 55.356 553.576 0L793.455 133.954 793.455 133.954zM793.455 23.236 239.879 23.236l0 55.361 553.576 0L793.455 23.236 793.455 23.236zM793.455 23.236"  horiz-adv-x="1024" />

    
    <glyph glyph-name="xinxi" unicode="&#58963;" d="M911.365509-128C936.437111-128 955.733333-99.869218 955.733333-67.303076L955.733333 835.303078C955.733333 867.869219 936.437111 896 911.365509 896L112.634488 896C87.562886 896 68.266667 867.869219 68.266667 835.303078L68.266667-67.303076C68.266667-99.869218 87.562886-128 112.634488-128L911.365509-128ZM204.8 759.466667 546.133333 759.466667 546.133333 691.2 204.8 691.2 204.8 759.466667ZM204.8 554.666667 819.2 554.666667 819.2 486.4 204.8 486.4 204.8 554.666667ZM204.8 349.866667 819.2 349.866667 819.2 281.6 204.8 281.6 204.8 349.866667ZM204.8 145.066667 819.2 145.066667 819.2 76.8 204.8 76.8 204.8 145.066667Z"  horiz-adv-x="1024" />

    
    <glyph glyph-name="iconfontmimarenzheng" unicode="&#58937;" d="M851.9168-71.68 172.06272-71.68c-24.4736 0-44.34944 19.37408-44.34944 43.25376L127.71328 345.92768c0 23.84896 19.8656 43.20256 44.34944 43.20256l73.8816 0L245.94432 590.72512C245.94432 733.87008 365.07648 849.92 511.98976 849.92c146.91328 0 266.04544-116.04992 266.04544-259.19488l0-201.60512 73.8816 0c24.48384 0 44.34944-19.3536 44.34944-43.20256l0-374.36416C896.26624-52.30592 876.40064-71.68 851.9168-71.68zM467.64032 141.89568l0-83.93728c0-23.92064 19.87584-43.25376 44.34944-43.25376 24.48384 0 44.34944 19.33312 44.34944 43.25376l0 83.93728c26.37824 14.97088 44.34944 42.496 44.34944 74.4448 0 47.69792-39.75168 86.39488-88.69888 86.39488-49.00864 0-88.69888-38.68672-88.69888-86.39488C423.29088 184.40192 441.26208 156.86656 467.64032 141.89568zM689.33632 590.72512c0 95.42656-79.39072 172.78976-177.34656 172.78976S334.6432 686.16192 334.6432 590.72512l0-201.60512 354.69312 0L689.33632 590.72512z"  horiz-adv-x="1024" />

    
    <glyph glyph-name="yanzhengma" unicode="&#58964;" d="M119.928928 667.520285 119.928928 667.520285l0-561.941436c0-31.360242 24.992207-56.591903 55.710836-56.591903l673.216775 0c30.638811 0 55.713906 25.305339 55.713906 56.591903L904.570445 667.520285c0 31.360242-24.997324 56.587809-55.713906 56.587809L175.639764 724.108095C144.99993 724.108095 119.928928 698.806849 119.928928 667.520285L119.928928 667.520285 119.928928 667.520285zM63.881424 667.520285c0 62.322417 50.135864 112.849184 111.75834 112.849184l673.216775 0c61.72276 0 111.76141-50.469462 111.76141-112.849184l0-561.941436c0-62.326511-50.135864-112.849184-111.76141-112.849184L175.639764-7.270335c-61.723783 0-111.75834 50.465368-111.75834 112.849184L63.881424 667.520285 63.881424 667.520285 63.881424 667.520285zM63.881424 667.520285M288.066323 330.290751c30.952966 0 56.042387 25.186635 56.042387 56.257282 0 31.072693-25.090445 56.262398-56.042387 56.262398-30.953989 0-56.047504-25.189705-56.047504-56.262398C232.018819 355.477386 257.113357 330.290751 288.066323 330.290751L288.066323 330.290751zM512.247128 330.290751c30.952966 0 56.047504 25.186635 56.047504 56.257282 0 31.072693-25.093515 56.262398-56.047504 56.262398s-56.043411-25.189705-56.043411-56.262398C456.203718 355.477386 481.294163 330.290751 512.247128 330.290751L512.247128 330.290751zM736.432027 330.290751c30.952966 0 56.047504 25.186635 56.047504 56.257282 0 31.072693-25.093515 56.262398-56.047504 56.262398s-56.047504-25.189705-56.047504-56.262398C680.385547 355.477386 705.479061 330.290751 736.432027 330.290751L736.432027 330.290751zM736.432027 330.290751"  horiz-adv-x="1024" />

    
    <glyph glyph-name="kebiaohover" unicode="&#58987;" d="M350.182033 564.01184c12.737092 0 23.062252 10.32516 23.062252 23.062252L373.244284 743.225501l-0.064468 0c-0.838088 11.974729-10.810207 21.430078-22.998807 21.430078s-22.160719-9.455349-22.998807-21.430078l-0.064468 0 0-156.151409C327.118757 574.337 337.443917 564.01184 350.182033 564.01184zM689.389618 564.01184c12.737092 0 23.062252 10.32516 23.062252 23.062252L712.45187 743.225501l-0.064468 0c-0.837064 11.974729-10.809183 21.430078-22.998807 21.430078-12.187577 0-22.159696-9.455349-22.998807-21.430078l-0.064468 0 0-156.151409C666.327366 574.337 676.652526 564.01184 689.389618 564.01184zM843.329662 695.458591 722.459804 695.458591l0-97.435123 0 0c0-0.649799-0.022513-1.293459-0.059352-1.934049l0-10.089799c0-18.619056-15.093766-33.712823-33.713846-33.712823-18.619056 0-33.712823 15.093766-33.712823 33.712823 0 0.620124 0.020466 1.236154 0.052189 1.848091l0 17.761526 0.007163 0 0 89.849354L383.744429 695.458591l0-90.105181 0-7.330966 0-1.023306 0-11.256368c0-18.619056-15.093766-33.712823-33.713846-33.712823-18.619056 0-33.712823 15.093766-33.712823 33.712823 0 0.620124 0.019443 1.236154 0.052189 1.848091l0 8.579399c-0.032746 0.615007-0.052189 1.231037-0.052189 1.852184l0 97.435123L180.668291 695.457568c-38.248116 0-69.357648-31.052227-69.357648-69.222571l0-553.671075c0-38.165228 31.109532-69.222571 69.357648-69.222571l662.661372 0c38.252209 0 69.358671 31.057343 69.358671 69.222571L912.688333 626.237043C912.688333 664.406364 881.581871 695.458591 843.329662 695.458591zM373.303636 186.059835l-77.06826 0L296.235376 262.19177l77.06826 0L373.303636 186.059835zM373.303636 368.779344l-77.06826 0 0 76.130911 77.06826 0L373.303636 368.779344zM558.233486 186.059835 481.182622 186.059835 481.182622 262.19177l77.04984 0L558.232462 186.059835zM558.233486 368.779344 481.182622 368.779344l0 76.130911 77.04984 0L558.232462 368.779344zM743.154126 186.059835l-77.0437 0L666.110425 262.19177l77.0437 0L743.154126 186.059835zM743.154126 368.779344l-77.0437 0 0 76.130911 77.0437 0L743.154126 368.779344z"  horiz-adv-x="1024" />

    
    <glyph glyph-name="shangchuan" unicode="&#59078;" d="M436.929546 275.530886l150.452193 0c0 104.35105 0 313.105514 0 313.105514l122.457774 1.777195-194.174949 229.14464L314.491958 595.65764l0-1.777395 122.437587-5.243845C436.929546 588.636401 436.929546 379.881936 436.929546 275.530886zM849.851185 418.945451c-11.332317 22.294284-37.37466 71.60765-45.50115 77.003592-17.27209 1.081267-123.110131 5.524255-138.165924 1.753411-5.508265-9.184773-7.326033-59.907183 0-64.716922 9.597493-5.829048 63.978423 0.866013 69.914398-15.774305 9.900288-6.737032 129.4988-227.410815 129.4988-227.410815L664.428302 189.800411l-8.799034-131.19465-304.410809 1.736822 3.482039 132.926476L174.503271 193.26906c0 0 67.255201 128.175697 115.462916 225.676391 10.204481 19.845944 63.631658-5.873018 69.959967 15.794291l0 50.700025c-2.317829 3.509021-6.97627 10.509275-6.97627 10.509275l-127.724603 1.753411L64.245625 167.024853l0-190.680319c0 0 592.013015 0 883.579733 0 5.954963 3.007961 11.894935 7.68479 13.928556 14.038482L961.753915 200.307088C924.446409 273.19447 887.157691 346.077056 849.851185 418.945451z"  horiz-adv-x="1024" />

    
    <glyph glyph-name="laoshi" unicode="&#58947;" d="M419.237293 462.19185c-5.489014 0-10.825556 0.404206-15.862269 1.201361-4.994758 0.794086-9.393951 1.99954-13.441127 3.682879-6.812149 2.835581-11.951193 7.712659-15.709797 14.908548-2.765997 5.28947-4.885264 11.365862-6.67298 19.123546-0.931209 4.041036-1.868557 8.349155-2.62171 11.811l-0.172939 0.791016c-0.606821 2.783393-1.202385 5.51562-1.816369 8.243755l-0.110517 0.49221-0.138146 0.496304c-0.083911 0.299829-0.296759 0.992607-0.49221 1.595334l-0.053212 0.163729c-0.160659 0.503467-0.340761 1.068332-0.503467 1.64036-0.228197 0.805342-0.438998 1.611707-0.648776 2.418073-0.284479 1.093914-0.563842 2.14485-0.818645 3.00238l-2.128477 7.172353-6.251378 4.108574c-0.455371 0.298805-0.695848 0.676405-0.780783 1.221828l-0.085958 0.512676c-0.124843 0.706081-0.231267 1.308809-0.216941 1.907443 0.106424 4.216022 0.24457 8.42488 0.38374 12.633738l0.10847 3.320629c0.030699 1.02126 0.665149 1.772366 1.698688 2.043542l1.020236 0.273223c1.463328 0.396019 3.081175 0.832971 4.6366 1.047866 8.571213 1.161453 17.74106 2.39249 27.01119 3.505847 9.943466 1.193175 20.527522 1.733481 34.314527 1.75497l0.190335 0.001023c0.63445 0.008186 1.419326 0.011256 2.209318 0.011256 14.790868 0 29.891797-1.404999 44.88528-4.174066 8.506744-1.564635 16.820084-4.253884 24.15412-6.625908 5.379521-1.740644 9.513678-2.841721 13.405311-3.572362 2.103918-0.39295 4.273327-0.607844 6.464225-0.639566l-17.690918-45.662992c-1.860371-4.803399-3.767813-9.018398-5.826705-12.884448-4.590552-8.620331-10.614755-16.139585-17.903765-22.353101-4.314259-3.671623-9.581216-6.371104-16.571421-8.489348-7.438413-2.249227-15.585977-3.669576-24.902156-4.342912C425.205215 462.30646 422.158832 462.19185 419.237293 462.19185zM400.884296 470.87051c1.928932-0.479931 3.730974-0.8913 5.556553-1.166569 4.822842-0.723477 9.721409-1.088798 14.566764-1.088798 8.572236 0 17.305131 1.14815 25.953092 3.411703 7.2798 1.908466 13.032828 4.951779 17.591657 9.302877 3.388167 3.228531 6.374174 7.139607 9.395998 12.302187 4.91494 8.394181 8.479115 17.209964 10.591219 26.199709 1.569752 6.705726 2.096754 12.673647 1.609661 18.249643l-0.972141 11.181667-9.965979 5.197372c-3.350304 1.778506-6.92676 2.669806-11.606339 3.730974l-1.02433 0.233314c-9.474792 2.185782-19.49603 3.210112-33.479509 3.418866l-0.690732 0.010233-3.434216-0.180102c-3.307326-0.172939-7.424086-0.387833-11.475356-0.721431-8.129144-0.659009-15.433504-1.856277-22.320355-3.659343l-12.003382-3.229554-2.848884-12.04943c-0.3776-1.630127-0.574075-3.221368-0.809435-5.291516l-0.01228-0.10847c-0.061398-0.543376-0.119727-1.048889-0.183172-1.552356-0.582261-4.692882-0.648776-9.347902-0.199545-13.850449 0.64366-6.52767 1.6465-15.135722 3.691065-23.724331 1.578961-6.633071 3.871167-12.130272 7.007601-16.803711 1.647523-2.451842 3.500731-4.400217 5.668093-5.958712l5.354961-3.852748L400.884296 470.871533zM605.324502 462.741365c-8.665357 0-16.601096 0.722454-24.260543 2.207271-7.457856 1.453095-13.920034 3.706415-19.744693 6.885827-8.321526 4.538363-15.186887 11.368932-20.408819 20.305465-3.532453 6.034437-6.706749 12.407588-9.43693 18.950607l-18.859533 45.177945c4.529153 0.093121 9.239432 0.932232 14.370289 2.555196 2.464121 0.782829 4.888334 1.636267 7.232728 2.461051 2.191922 0.77055 4.450359 1.564635 6.644327 2.273786 8.132214 2.628874 17.10661 4.508687 28.243251 5.916756 10.404977 1.315972 21.043269 1.955538 32.522718 1.955538 4.696975 0 9.609869-0.112564 14.601556-0.335644l0.741897-0.033769c7.774057-0.347924 15.811104-0.708128 23.77345-1.26276 9.870812-0.682545 19.639293-2.146896 30.470989-3.847631 0.599657-0.093121 1.177825-0.245593 1.736551-0.391926l0.358157-0.093121c0.89437-0.230244 1.489934-0.64366 1.572822-1.940189 0.039909-0.660032 0.092098-1.364067 0.145309-2.061962l0.035816-0.454348c0.11461-1.493004 0.222057-2.871397 0.268106-4.327562 0.074701-2.622734 0.088004-5.215792 0.086981-8.003278l-3.03308 5.517667-4.333702-14.918781-0.047072-0.031722-2.026146-7.099698-7.413853-25.629727 1.292436 0.727571c-1.635243-6.677073-3.589758-13.526061-6.271844-20.057825-1.827625-4.455475-3.885494-8.101515-6.29231-11.150968-3.865028-4.9088-8.78713-8.055466-15.966647-10.210549-5.541203-1.656733-11.700483-2.612501-18.816554-2.919493C610.074689 462.795601 607.661733 462.741365 605.324502 462.741365zM595.726913 562.150446c-3.024893-0.113587-6.791683-0.255827-10.457166-0.493234-6.037507-0.38988-12.358469-1.251503-19.323091-2.631944-4.107551-0.814552-8.961092-1.87265-13.81668-3.545756l-12.703323-4.377704-1.035586-13.395078c-0.061398-0.772596-0.102331-1.563612-0.122797-2.356674-0.127913-5.2864 0.76748-10.346649 2.153036-16.324804 2.814092-12.181437 7.704472-22.509666 14.951527-31.567973 5.955642-7.440459 13.478989-12.169157 22.361287-14.057157 9.739828-2.070148 18.629289-3.076058 27.179013-3.076058l0.947582 0.004093c5.580089 0.047072 12.130272 0.334621 18.672268 2.108011 5.9055 1.602498 9.958816 3.701299 13.145391 6.803963 2.940982 2.847861 5.262864 6.570649 7.077186 11.361769 3.722788 9.806343 5.789866 20.566408 6.14393 31.976272l0.019443 0.655939c0.098237 3.786233-0.053212 7.54893-0.198521 11.187807l-0.068562 1.760087c-0.052189 1.364067-0.130983 2.498914-0.2415 3.466961l-0.326435 2.845815-1.091868 2.641153c-0.118704 0.287549-0.251733 0.597611-0.39295 0.915859l-3.911076 8.81783-9.30083 2.592035c-10.828626 3.016707-21.632693 4.060479-35.555797 4.765537l-0.903579 0.046049L595.726913 562.150446zM689.139419 289.422971 561.861618 57.768961l-18.872836 55.18588 34.837436 69.656453-69.715805 69.650313-69.734224-69.650313 34.878368-69.656453-22.487154-56.493665L327.037405 289.422971c0 0-263.637446-139.462309-263.637446-277.521664 0-38.137599 15.717983-73.358775 54.207599-73.358775l782.664489 0c38.252209 0 54.378491 34.922371 54.378491 72.821539C954.649516 141.009803 689.139419 289.422971 689.139419 289.422971zM871.5284 149.960663M737.476311 574.750415l-0.165776 10.885931-9.146311 6.122441c-1.113357 0.775666-2.208295 1.442862-3.303232 2.115174C706.154955 754.512568 707.417715 849.288119 519.825222 821.250552c-65.778122-9.804297-137.571239 10.455119-178.441065-19.197224-51.40067-48.027853-55.031361-120.107495-41.079604-204.702172-3.084245-1.642406-6.201236-3.496637-9.272177-5.607718l-9.146311-6.126534-0.165776-10.880815c-0.473791-28.175713 3.083222-51.959396 10.740622-70.169129 6.962575-16.568351 17.22122-28.891004 30.960129-36.307927 16.33913-55.202253 39.817867-96.643084 69.194942-126.4479 32.026414-32.508391 70.535473-50.977022 114.125247-58.268078l3.891633-0.62524 3.918239 0.793062c48.255027 10.119475 86.797855 29.391401 117.497041 61.593823 28.496008 29.823236 49.743938 70.095451 65.35038 123.883495 13.223163 7.628748 23.13593 20.058848 29.804816 36.487006C734.558865 523.776464 737.935776 547.134451 737.476311 574.750415zM687.750793 521.38909c-3.742231-9.147334-8.849552-15.167444-15.304568-17.398252l-10.626012-3.710508-2.904143-10.746762c-13.978363-51.594075-32.67519-89.00001-57.706283-115.215068-23.644513-24.710798-53.630455-39.971363-91.369987-48.482201-33.190937 6.215562-62.461587 20.666692-86.778412 45.337581-26.094308 26.521027-46.919613 65.016783-61.386092 117.891014l-3.070942 11.248182-11.260461 3.464915c-6.595208 2.00261-11.80793 7.902994-15.606443 17.020652-3.804652 8.979512-6.127558 20.48659-7.082302 34.150798 10.314926 1.549286 21.869077 4.481058 27.567869 0.756223 0.62217 1.934049 1.243317 4.090155 1.928932 6.567579l0.301875-0.046049 0.839111 4.498454c3.111874 12.281721 6.609535 89.153506 9.739828 101.537558 1.230014 3.617387 1.671059 7.722892 4.045129 10.626012 15.106046-20.48659 129.439024-22.814612 195.810664 23.024389l-12.401448-33.437553 12.614296-2.475378 14.165628 22.521946-1.780553-15.774265 13.422707-1.762133 8.344039 25.898857c16.442484-9.377578 34.651194-21.932522 50.898227-15.105023 5.408173-12.161994 9.574053-86.222757 12.277628-100.522438l3.497661-18.329461 6.108115 0.379647 2.857071-9.559727c7.189749 0.867764 13.483082 1.016143 19.684318 1.12359C693.64606 541.545152 691.364087 530.297994 687.750793 521.38909z"  horiz-adv-x="1024" />

    
    <glyph glyph-name="canjia" unicode="&#59009;" d="M793.6 332.8C666.350933 332.8 563.2 229.649067 563.2 102.4S666.350933-128 793.6-128 1024-24.849067 1024 102.4 920.849067 332.8 793.6 332.8zM773.5296 2.0992l-124.125867 124.125867 31.0272 31.010133 93.098667-93.0816 155.170133 155.153067 31.0272-31.0272L773.5296 2.0992zM522.461867 269.755733c-22.2208 2.235733-43.0592 3.345067-61.661867 3.345067-149.76 0-443.733333-72.123733-443.733333-221.883733l0-110.933333 512.597333 0C496.981333-10.9056 477.866667 47.7696 477.866667 110.933333 477.866667 169.130667 494.353067 223.368533 522.461867 269.755733zM460.8 827.767467c-122.026667 0-221.866667-99.857067-221.866667-221.866667 0-122.026667 99.84-221.883733 221.866667-221.883733s221.866667 99.857067 221.866667 221.883733C682.666667 727.9104 582.826667 827.767467 460.8 827.767467z"  horiz-adv-x="1024" />

    
    <glyph glyph-name="pinglun" unicode="&#58938;" d="M905.898667 851.968 129.365333 851.968c-71.338667 0-129.365333-58.026667-129.365333-129.365333l0-518.144c0-71.338667 58.026667-129.365333 129.365333-129.365333l253.952 0 134.144-163.84 133.802667 163.84 254.293333 0c71.338667 0 129.365333 58.026667 129.365333 129.365333L1034.922667 722.602667C1035.264 793.941333 977.237333 851.968 905.898667 851.968L905.898667 851.968 905.898667 851.968zM236.885333 397.994667c-34.474667 0-62.464 27.989333-62.464 62.464 0 34.474667 27.989333 62.464 62.464 62.464 34.474667 0 62.464-27.989333 62.464-62.464C299.349333 425.984 271.36 397.994667 236.885333 397.994667L236.885333 397.994667 236.885333 397.994667zM518.144 397.994667c-34.474667 0-62.464 27.989333-62.464 62.464 0 34.474667 27.989333 62.464 62.464 62.464 34.474667 0 62.464-27.989333 62.464-62.464C580.608 425.984 552.618667 397.994667 518.144 397.994667L518.144 397.994667zM799.402667 397.994667c-34.474667 0-62.464 27.989333-62.464 62.464 0 34.474667 27.989333 62.464 62.464 62.464 34.474667 0 62.464-27.989333 62.464-62.464C861.866667 425.984 833.877333 397.994667 799.402667 397.994667L799.402667 397.994667zM799.402667 397.994667"  horiz-adv-x="1035" />

    
    <glyph glyph-name="cansai" unicode="&#58923;" d="M943.942663 498.848725l-45.858444 40.667212c-18.632359 16.508999-48.480154 14.474666-64.824401-3.88754L449.611068 103.104495l-44.239574-165.31307 158.859078 63.776536 383.633401 432.492178c8.147564 9.196453 12.216229 20.985964 11.44875 33.205263C958.554452 479.512331 953.116603 490.749256 943.942663 498.848725zM810.491255 610.232534 810.491255 719.36814c0 61.663408-50.003857 111.652939-111.684662 111.652939L177.61321 831.02108c-61.682851 0-111.685685-49.989531-111.685685-111.652939l0-669.923776c0-61.663408 50.002834-111.652939 111.685685-111.652939l150.683884 0 5.14723 19.238157L377.685945 122.346745l4.546549 16.987906 11.670807 13.156648 383.733685 432.622138C786.957259 595.586976 798.303678 603.694631 810.491255 610.232534zM608.27981-60.962188l-3.113921-1.24741 93.640704 0c61.682851 0 111.685685 49.989531 111.685685 111.652939L810.492278 167.006897 619.935268-47.818843 608.27981-60.962188z"  horiz-adv-x="1024" />

    
    <glyph glyph-name="jiangli" unicode="&#58965;" d="M579.99336 534.63529c-2.199785 11.898838-4.999512 26.597403-4.999512 26.597403l88.291378 0L814.870423 861.90333c3.199688 7.599258 2.399766 16.298408-2.299775 23.097744C807.871106 891.9004 799.971878 896 791.572698 896l-98.490382 0-98.490382 0-66.793477 0-31.696905 0-66.793477 0-98.490382 0-98.490382 0c-8.39918 0-16.298408-4.0996-20.897959-10.998926-4.699541-6.799336-5.499463-15.498486-2.299775-23.097744l148.385509-300.670638 88.291378 0c0 0-2.899717-15.398496-5.199492-27.497315-150.585294-32.696807-263.37428-166.583732-263.37428-326.96807 0-184.881945 149.885363-334.767308 334.767308-334.767308s334.767308 149.885363 334.767308 334.767308C846.767308 368.451518 732.278488 503.238356 579.99336 534.63529zM512-68.805781c-152.285128 0-275.673079 123.38795-275.673079 275.673079S359.714872 482.540377 512 482.540377 787.673079 359.052436 787.673079 206.867298 664.285128-68.805781 512-68.805781zM512 206.867298m-236.276926 0a236.3 236.3 0 1 0 472.553852 0 236.3 236.3 0 1 0-472.553852 0Z"  horiz-adv-x="1024" />

    
    <glyph glyph-name="shipin" unicode="&#59146;" d="M984.615385 856.615385l-39.384615 0 0-78.769231-118.153846 0L827.076923 856.615385 196.923077 856.615385l0-78.769231L78.769231 777.846154 78.769231 856.615385 39.384615 856.615385C17.683692 856.615385 0 838.931692 0 817.230769l0-866.461538c0-21.700923 17.683692-39.384615 39.384615-39.384615l39.384615 0 0 39.384615 118.153846 0 0-39.384615 630.153846 0 0 39.384615 118.153846 0 0-39.384615 39.384615 0c21.700923 0 39.384615 17.683692 39.384615 39.384615L1024 817.230769C1024 838.931692 1006.316308 856.615385 984.615385 856.615385zM196.923077 68.923077 78.769231 68.923077l0 118.153846 118.153846 0L196.923077 68.923077zM196.923077 305.230769 78.769231 305.230769l0 118.153846 118.153846 0L196.923077 305.230769zM196.923077 541.538462 78.769231 541.538462 78.769231 659.692308l118.153846 0L196.923077 541.538462zM692.696615 358.163692l-256.118154-149.385846c-4.174769-2.087385-8.743385-3.072-13.272615-3.072-5.435077 0-10.712615 1.457231-15.517538 4.292923C399.123692 215.236923 393.846154 224.610462 393.846154 234.614154L393.846154 533.346462c0 10.043077 5.277538 19.416615 13.942154 24.654769 8.743385 5.277538 19.652923 5.750154 28.750769 1.181538l256.118154-149.346462C702.621538 404.913231 708.923077 394.948923 708.923077 384S702.621538 363.086769 692.696615 358.163692zM945.230769 68.923077l-118.153846 0 0 118.153846 118.153846 0L945.230769 68.923077zM945.230769 305.230769l-118.153846 0 0 118.153846 118.153846 0L945.230769 305.230769zM945.230769 541.538462l-118.153846 0L827.076923 659.692308l118.153846 0L945.230769 541.538462z"  horiz-adv-x="1024" />

    
    <glyph glyph-name="banji" unicode="&#58949;" d="M1023.997 62.517 835.253 62.517c-12.04 84.335-52.195 160.635-116.445 212.834-8.035 16.06-12.05 32.12-12.05 48.185 0 68.267 56.225 124.487 124.49 124.487s124.485-56.22 124.485-124.487c0-44.17-24.095-84.33-60.235-104.41C963.763 195.032 1011.947 134.802 1023.997 62.517L1023.997 62.517zM309.207 323.537c0-12.045-4.015-28.105-8.032-40.16-68.267-52.2-116.455-132.52-128.5-220.859L0 62.518c8.03 72.285 60.235 132.515 124.485 152.6-36.142 20.075-60.235 60.235-60.235 104.41 0 68.267 56.217 124.49 124.487 124.49C257.004 444.009 309.207 391.804 309.207 323.537L309.207 323.537zM815.183 62.517 196.764 62.517c16.062 116.46 100.392 212.834 208.809 252.994-60.232 36.14-100.39 100.385-100.39 172.67 0 112.44 88.345 200.782 200.78 200.782 112.45 0 200.794-88.345 200.794-200.782 0-72.285-40.16-140.55-100.395-172.67C718.808 275.352 799.123 178.977 815.183 62.517L815.183 62.517z"  horiz-adv-x="1024" />

    
    <glyph glyph-name="liwu" unicode="&#58958;" d="M85.93-54.016c0-24.576 7.126-31.317 29.44-31.317h353.366V384.256H85.931v-438.272z m469.334-31.317h353.365c22.358 0 29.44 6.698 29.44 31.317V384.256H555.221v-469.59zM938.667 640H725.333c51.499 11.733 105.899 49.707 112.598 94.293 7.85 50.859-52.566 127.958-125.654 118.187-87.424-12.117-151.509-89.259-196.736-149.077C470.656 762.069 412.16 830.592 328.363 850.517c-81.152 19.2-136.747-64.938-135.254-116.992 1.451-44.245 52.608-81.834 105.558-93.525H85.333c-26.368 0-42.666-14.848-42.666-42.667v-170.581l426.666-0.085V640h85.334v-213.333l426.666 0.085V597.333c0 27.819-16.341 42.667-42.666 42.667z m-687.019 77.824c-14.763 16.427-4.779 38.741 4.48 55.595 17.024 29.696 40.747 47.744 81.152 30.933 56.32-23.51 97.792-73.216 131.584-117.803-71.552-7.893-178.304-10.965-217.216 31.275z m311.296-30.507c34.816 44.63 75.221 89.942 131.157 117.803 58.582 28.97 113.024-49.323 85.206-86.912-21.419-28.544-89.259-31.232-125.91-32.853-30.08-1.536-60.501-0.811-90.453 1.962z"  horiz-adv-x="1024" />

    
    <glyph glyph-name="baocun" unicode="&#59036;" d="M339.968 112.128h108.544v-176.128h-108.544v176.128zM938.496 832h-853.504c-11.264 0-20.48-9.216-20.48-20.48v-738.816l136.704-135.168h62.464v260.608h411.136v-260.608h-0.512 264.192c11.264 0 20.48 9.216 20.48 20.48V811.52c0 11.264-8.704 20.48-20.48 20.48z m-121.856-450.048h-608.768v400.896h608.768v-400.896zM339.968-62.464h108.544-108.544z"  horiz-adv-x="1024" />

    
    <glyph glyph-name="shanchu1" unicode="&#58957;" d="M955.7504 759.4496H716.8V844.8c0 28.2624-27.4944 51.2-61.44 51.2H368.64C334.6944 896 307.2 873.0624 307.2 844.8v-85.3504H68.2496a34.1504 34.1504 0 0 1-34.1504-34.1504v-68.2496h955.7504V725.3504a34.0992 34.0992 0 0 1-34.0992 34.0992z m-341.5552 17.1008c0-9.4208-3.3792-17.0496-12.8-17.0496H426.6496A16.9984 16.9984 0 0 0 409.6 776.5504v34.0992c0 9.4208 7.6288 17.0496 17.0496 17.0496h170.496c9.4208 0 17.0496-7.6288 17.0496-17.0496v-34.0992zM102.4-59.7504C102.4-97.4336 132.9664-128 170.6496-128h682.6496c37.7344 0 68.3008 30.5664 68.3008 68.2496V588.8H102.4v-648.5504zM682.6496 435.2c0 9.4208 7.6288 17.0496 17.0496 17.0496h34.1504c9.4208 0 17.0496-7.6288 17.0496-17.0496v-409.6a17.0496 17.0496 0 0 0-17.0496-17.0496h-34.1504a17.0496 17.0496 0 0 0-17.0496 17.0496V435.2z m-204.8 0c0 9.4208 7.6288 17.0496 17.0496 17.0496h34.1504c9.4208 0 17.0496-7.6288 17.0496-17.0496v-409.6a17.0496 17.0496 0 0 0-17.0496-17.0496h-34.0992A17.0496 17.0496 0 0 0 477.9008 25.6V435.2z m-204.8 0c0 9.4208 7.6288 17.0496 17.0496 17.0496h34.1504c9.4208 0 17.0496-7.6288 17.0496-17.0496v-409.6a17.0496 17.0496 0 0 0-17.0496-17.0496h-34.0992A17.0496 17.0496 0 0 0 273.1008 25.6V435.2z"  horiz-adv-x="1024" />

    
    <glyph glyph-name="xuexiao" unicode="&#58882;" d="M707.512371 317.469748L707.512371 547.884534 528.924973 678.852378l0 67.358107 158.872381 0L687.797353 831.852004l-166.369122 0-14.638395 0L506.789836 678.871821 325.901023 540.844188l0-223.37444L103.199918 317.469748l0-379.234207 328.396355 0L431.596274 83.860199c0 43.199894 35.860742 78.208223 80.110549 78.208223l0 0c45.183062 0 81.817424-35.760458 81.817424-79.874165l0-143.958716 322.070276 0L915.594523 317.469748 707.512371 317.469748 707.512371 317.469748 707.512371 317.469748zM513.809717 374.492462c-44.230364 0-80.111572 35.007305-80.111572 78.208223 0 43.197848 35.881209 78.225619 80.111572 78.225619 44.251853 0 80.129992-35.027771 80.129992-78.225619C593.939709 409.50079 558.062594 374.492462 513.809717 374.492462L513.809717 374.492462z"  horiz-adv-x="1024" />

    
    <glyph glyph-name="bisai" unicode="&#59026;" d="M996.991 531.235c-53.81 88.199-107.682 176.36-161.802 264.377-31.253 50.823-34.999 50.846-72.633 3.541-51.15-64.286-83.071-71.843-155.084-33.199-43.422 23.293-84.709 50.554-128.088 73.935C423.699 869.897 365.964 894.84 295.006 895.391c-51.808 4.813-93.745-25.118-132.219-62.647-12.288-11.987-11.859-24.48-4.662-39.818 63.912-136.229 127.495-272.622 190.258-409.385 9.243-20.139 23.75-27.348 42.037-20.973 32.226 11.234 63.537 25.292 94.701 39.349 76.737 34.626 151.097 42.56 222.747-13.369 24.809-19.361 51.823-36.12 78.882-52.304 35.231-21.086 73.323-23.736 105.475 2.64 35.613 29.226 69.102 61.936 99.034 96.958 33.371 39.042 31.953 52.42 5.732 95.393zM86.263 822.782C72.153 853.32 60.042 857.316 33.482 845.178 4.78 832.071 1.377 821.334 15.843 788.721 84.184 634.65 412.381-102.868 412.381-102.868s19.929-37.814 60.665-20.488c41.252 17.546 20.508 59.24 20.508 59.24S170.678 640.129 86.263 822.782z"  horiz-adv-x="1024" />

    
    <glyph glyph-name="baocun1" unicode="&#59400;" d="M835.565-127.995h-647.13C84.531-127.995 0-45.978 0 54.836V713.164C0 813.978 84.531 895.995 188.435 895.995h647.129C939.469 895.995 1024 813.978 1024 713.164v-658.329c0-100.813-84.531-182.83-188.435-182.83zM730.815 805.184h-437.63v-239.899c0-11.845 9.935-21.483 22.144-21.483h393.343c12.208 0 22.144 9.639 22.144 21.483V805.184z m200.572-92.02c0 24.836-9.966 48.183-28.066 65.74-18.1 17.562-42.163 27.232-67.756 27.232h-12.142v-240.851c0-61.394-51.474-111.342-114.752-111.342H315.329c-63.278 0-114.757 49.948-114.757 111.342V806.136h-12.136c-25.599 0-49.662-9.669-67.757-27.232-18.1-17.557-28.066-40.904-28.066-65.74v-658.329c0-24.836 9.966-48.182 28.066-65.74 18.095-17.562 42.158-27.232 67.757-27.232h647.129c25.594 0 49.657 9.669 67.756 27.232 18.1 17.557 28.066 40.904 28.066 65.74V713.164z m-310.23-153.679c-25.532 0-46.304 20.152-46.304 44.927V750.413c0 24.775 20.772 44.927 46.304 44.927 25.537 0 46.309-20.152 46.309-44.927v-146.001c0-24.775-20.772-44.927-46.309-44.927z"  horiz-adv-x="1024" />

    
    <glyph glyph-name="tupian" unicode="&#58941;" d="M927.968 799.968H96A96 96 0 0 1 0 704v-639.968a96 96 0 0 1 96-96h831.968a96.032 96.032 0 0 1 96.032 96V704a96.064 96.064 0 0 1-96.032 95.968z m16-637.984l-200.832 267.808s-11.648 21.664-52.672 21.664c-46.528 0-60.512-20.992-60.512-20.992l-175.936-271.52s-9.568-18.176-33.056-18.176c-24.576 0-36.32 18.176-36.32 18.176l-92.512 105.76s-23.712 31.36-54.528 31.36c-30.656 0-56.16-34.752-56.16-34.752L80 134.784V686.816c0 17.664 14.336 32.032 32 32.032h800a32 32 0 0 0 32-32.032l-0.032-524.832zM463.904 511.968a113.312 113.312 0 1 0-226.656 0 113.312 113.312 0 0 0 226.656 0z"  horiz-adv-x="1024" />

    
    <glyph glyph-name="tianjia" unicode="&#59463;" d="M966.4 896H57.6C25.6 896 0 870.4 0 838.4V-64c0-38.4 25.6-64 57.6-64H960c32 0 57.6 25.6 57.6 57.6V838.4c6.4 32-19.2 57.6-51.2 57.6z m-12.8-902.4c0-25.6-25.6-51.2-51.2-51.2H121.6c-25.6 0-51.2 25.6-51.2 51.2V774.4c0 25.6 25.6 51.2 51.2 51.2H896c25.6 0 51.2-25.6 51.2-51.2v-780.8zM512 70.4c-19.2 0-38.4 19.2-38.4 38.4V659.2c0 19.2 19.2 38.4 38.4 38.4s38.4-19.2 38.4-38.4v-556.8c0-12.8-19.2-32-38.4-32zM198.4 384c0 19.2 19.2 38.4 38.4 38.4h556.8c19.2 0 38.4-19.2 38.4-38.4s-19.2-38.4-38.4-38.4H236.8c-19.2 0-38.4 19.2-38.4 38.4z"  horiz-adv-x="1024" />

    
    <glyph glyph-name="bianji" unicode="&#59018;" d="M946.328453 540.69783c-25.649674-22.398307-51.118716-47.867349-76.768389-70.265655-12.824837-12.824837-15.895572-22.398307-15.895573-41.545246v-406.059623c0-35.223143-3.251367-38.293879-38.293879-38.293879H137.460575c-35.223143 0-38.293879 3.251367-38.293879 38.293879V687.731875c0 35.223143 3.251367 41.545246 41.545246 41.545246h406.059623c9.57347 0 22.398307-3.251367 31.971776 6.322103 28.720409 28.720409 54.370083 60.692186 89.593226 95.915329-214.409596-3.070736-419.065091-3.070736-623.539954-3.070736C3.251367 828.443817 0 822.121715 0 783.647204v-859.986594C0-114.633269 3.251367-120.955371 44.796613-120.955371h866.308697c35.223143 0 41.545246 6.322103 41.545246 38.293879v597.89028c0 9.57347 3.251367 19.146939-6.322103 25.469042zM338.864703 368.194743c-9.57347-9.57347-12.824837-12.824837-3.251367-25.649673 44.796613-44.796613 86.341859-89.593226 127.887105-131.138473 3.251367-3.251367 9.57347-6.322103 15.895572-12.824837 3.251367 6.322103 9.57347 9.57347 12.824837 15.895573 127.887105 131.138472 259.025578 262.096313 386.732052 393.234786 12.824837 12.824837 9.57347 19.146939-3.251367 31.971776-38.293879 38.293879-76.768389 76.768389-111.810902 115.062268-12.824837 15.895572-22.398307 12.824837-35.223143 0l-134.209208-134.209208c-86.161228-82.909861-172.503087-166.180984-255.593579-252.342212zM1007.020639 809.296878C984.622332 834.946551 959.15329 857.164226 930.252249 876.491797 917.427412 886.065267 904.783207 892.38737 891.95837 892.38737s-22.398307-3.251367-31.971776-9.57347c-25.649674-22.398307-47.867349-47.867349-73.517023-70.265655-9.57347-9.57347 0-15.895572 6.322103-19.14694 41.545246-41.545246 83.090492-83.090492 124.635738-127.887105 12.824837-12.824837 19.146939-9.57347 28.720409 0 19.146939 22.398307 41.545246 44.796613 60.692186 67.19492 22.578938 22.217675 22.578938 54.189451 0.180632 76.587758zM210.977597 80.448756c79.839125 35.223143 153.536779 67.19492 217.299701 92.663962-41.545246 47.867349-83.090492 95.915329-127.887106 147.034045-31.791145-83.090492-60.692186-159.858882-89.412595-239.698007z"  horiz-adv-x="1024" />

    
    <glyph glyph-name="shanchu2" unicode="&#58989;" d="M950.857143 632.685714H73.142857c-21.942857 0-36.571429 14.628571-36.571428 36.571429s14.628571 36.571429 36.571428 36.571428h153.6V775.314286C226.742857 830.171429 266.971429 870.4 321.828571 870.4h380.342858c54.857143 0 95.085714-40.228571 95.085714-95.085714v-73.142857H950.857143c21.942857 0 36.571429-14.628571 36.571428-36.571429s-14.628571-32.914286-36.571428-32.914286z m-321.828572 168.228572h-237.714285c-69.485714 0-95.085714-25.6-95.085715-95.085715h427.885715c3.657143 69.485714-25.6 95.085714-95.085715 95.085715z m-259.657142-654.628572V526.628571c0 21.942857 14.628571 36.571429 36.571428 36.571429s36.571429-14.628571 36.571429-36.571429v-380.342857c0-21.942857-14.628571-36.571429-36.571429-36.571428s-36.571429 14.628571-36.571428 36.571428z m212.114285 0V526.628571c0 21.942857 14.628571 36.571429 36.571429 36.571429s36.571429-14.628571 36.571428-36.571429v-380.342857c0-21.942857-14.628571-36.571429-36.571428-36.571428-18.285714 0-36.571429 14.628571-36.571429 36.571428zM190.171429 563.2c21.942857 0 36.571429-14.628571 36.571428-36.571429v-464.457142c0-69.485714 25.6-95.085714 95.085714-95.085715h380.342858c69.485714 0 95.085714 25.6 95.085714 95.085715V526.628571c0 21.942857 14.628571 36.571429 36.571428 36.571429s36.571429-14.628571 36.571429-36.571429v-533.942857c0-54.857143-40.228571-95.085714-95.085714-95.085714H248.685714c-54.857143 0-95.085714 40.228571-95.085714 95.085714V526.628571c0 21.942857 18.285714 36.571429 36.571429 36.571429z"  horiz-adv-x="1024" />

    
    <glyph glyph-name="save_blue" unicode="&#59142;" d="M896 832h-768c-32 0-64-32-64-64v-768c0-32 32-64 64-64h768c32 0 64 32 64 64v768c0 32-32 64-64 64zM320 768h384v-288c0-19.2-12.8-32-32-32h-320c-19.2 0-32 12.8-32 32v288zM896 32c0-19.2-12.8-32-32-32h-704c-19.2 0-32 12.8-32 32v704c0 19.2 12.8 32 32 32h96v-320c0-32 32-64 64-64h384c32 0 64 32 64 64v320h96c19.2 0 32-12.8 32-32v-704zM608 512c19.2 0 32 12.8 32 32v128c0 19.2-12.8 32-32 32s-32-12.8-32-32v-128c0-19.2 12.8-32 32-32z"  horiz-adv-x="1024" />

    
    <glyph glyph-name="laoshi1" unicode="&#58885;" d="M737.0614 276.694907L590.240511 9.446275l-21.777951 63.603155 40.238731 80.333237-80.477462 80.333237-80.477462-80.189012 40.238731-80.333237-25.960472-65.189629-142.782594 268.835106S15.07184 115.884208 15.07184-43.340018c0-43.988577 18.17233-84.659982 62.593581-84.659982h902.991738c44.132802 0 62.737806 40.238731 62.737806 84.083083 0 149.416937-306.333565 320.611824-306.333565 320.611824m210.424045-160.810699zM792.876414 605.960222l-0.144225 12.547561-10.528413 7.067018c-1.298024 0.865349-2.596047 1.730698-3.749846 2.451822-21.633726 185.328922-20.191478 294.651353-236.528741 262.344988-75.862267-11.249538-158.791551 12.114887-205.953075-22.210626-59.27641-55.382339-63.458931-138.600073-47.449973-236.240291-3.605621-1.874923-7.211242-4.038296-10.672639-6.490118l-10.528413-7.067017-0.144225-12.547562c-0.576899-32.45059 3.605621-59.997534 12.403337-80.910136 8.076591-19.181904 19.903028-33.315939 35.76776-41.825204 18.893454-63.74738 46.007725-111.485803 79.900563-145.955541 36.92156-37.498459 81.342811-58.843736 131.677281-67.208776l4.47097-0.721124 4.47097 0.865349c55.670789 11.682212 100.092041 33.892838 135.571352 71.102847 32.883264 34.469737 57.401487 80.910137 75.429592 142.926818 15.287833 8.797715 26.681596 23.075975 34.325513 42.113654 8.220816 20.912602 12.114887 47.882648 11.682212 79.756338z m-57.401487-61.584007c-4.326745-10.528413-10.239964-17.451206-17.595431-20.047254l-12.259111-4.326745-3.317172-12.403336c-16.153182-59.56486-37.642684-102.688088-66.631877-132.975305-27.258495-28.556519-61.872457-46.15195-105.42836-55.959239-38.363808 7.211242-72.112421 23.797099-100.09204 52.353618-30.142992 30.575667-54.084316 74.996918-70.814398 136.004026l-3.605621 12.980236-12.980235 4.038296c-7.643917 2.307597-13.557135 9.086165-18.028106 19.614578-4.326745 10.384189-7.067017 23.652874-8.220816 39.373382 11.970662 1.730698 25.239347 5.192094 31.87369 0.865349 0.721124 2.163373 1.442248 4.75942 2.163373 7.643917h0.28845l1.009574 5.192094c3.605621 14.134035 7.643917 102.832313 11.249537 117.110572 1.442248 4.18252 1.874923 8.94194 4.615195 12.259112 17.451206-23.652874 149.416937-26.393146 225.856103 26.537371l-14.278259-38.652258 14.566709-2.884497 16.297407 25.960472-2.019148-18.17233 15.432058-2.019148 9.663065 29.854542c19.037679-10.816863 39.950281-25.239347 58.699511-17.451206 6.201668-13.98981 11.105313-99.515141 14.134034-115.956773l4.038296-21.201052 7.067017 0.432675 3.317171-10.961088c8.365041 1.009574 15.576283 1.153799 22.643301 1.298023-0.865349-15.287833-3.461396-28.268069-7.643917-38.508032z"  horiz-adv-x="1216" />

    
    <glyph glyph-name="xiangqing" unicode="&#59004;" d="M853.46816 516.29056c-11.29984 11.66336-21.8112 22.5792-32.39424 33.42336-4.23936 4.352-8.45824 8.75008-13.0048 12.76928-7.69536 6.80448-15.03232 7.2704-23.22944 1.09568-5.0432-3.80416-9.67168-8.24832-14.09536-12.78464-57.07264-58.3936-113.99168-116.9408-171.12064-175.27296-60.61568-61.89056-121.56928-123.45344-182.00576-185.51296a390.44096 390.44096 0 0 1-35.34848-41.61024c-12.22144-16.70656-17.29536-36.76672-22.43072-56.60672-7.87968-30.4384-16.14848-60.77952-24.13568-91.19744-0.75264-2.87232-1.8944-3.90144-4.99712-3.87584-49.32096 0.36864-98.64704 0.4864-147.968 0.90112-33.67424 0.28672-58.26048 25.54368-58.27072 59.648-0.04096 112.74752-0.01536 225.48992-0.01536 338.2272 0 110.53568-0.01536 221.07136 0.01024 331.60704 0.00512 25.38496 11.4432 43.776 34.26304 54.9376 8.49408 4.16256 17.64352 5.09952 27.00288 5.0944 109.70624-0.04608 219.41248-0.0256 329.1136-0.0256 92.5696 0 185.14432-0.0768 277.71392 0.06144 18.304 0.0256 33.84832-5.83168 46.12608-19.5072 9.16992-10.21952 14.43328-22.29248 14.50496-36.09088 0.27136-54.43584 0.30208-108.8768 0.41984-163.30752 0.03584-15.616 0.08192-31.22688 0.10752-46.83776 0-1.32096-0.12288-2.64704-0.24576-5.13536z m-383.4368 124.61568l224.27136 0.00512c1.79712 0 3.59936-0.05632 5.38624 0.1024 13.50656 1.152 21.07392 15.8208 14.06976 27.3664-4.39808 7.24992-11.37152 8.84224-19.28192 8.84224-149.65248-0.05632-299.29984-0.04096-448.95232-0.05632-2.06848 0-4.1472-0.10752-6.1952-0.34816-8.31488-0.99328-14.8224-7.69024-15.50848-15.85152-0.75264-8.94464 4.23936-16.78336 12.52352-19.09248 2.74432-0.76288 5.72416-0.9216 8.59136-0.9216 75.0336-0.05632 150.06208-0.04608 225.09568-0.04608z m-49.58208-58.8032c-58.42432 0-116.84864 0.00512-175.27808-0.02048-2.33472 0-4.72064-0.07168-6.99392-0.52224-8.81664-1.76128-14.65856-9.15968-14.47936-18.08896 0.22528-10.85952 8.3968-17.74592 21.13536-17.74592 116.85376-0.00512 233.7024-0.00512 350.55616 0.01536 2.2016 0 4.4288 0.13312 6.58944 0.51712 8.34048 1.47968 14.36672 8.50944 14.7968 17.08544 0.40448 8.18688-5.44768 16.0512-13.66528 17.99168-2.51904 0.59392-5.19168 0.7424-7.79264 0.7424-58.2912 0.03584-116.5824 0.0256-174.86848 0.0256zM347.04384 450.8928c28.7232 0 57.4464-0.00512 86.17472 0.00512 6.90176 0.00512 13.824-0.2048 20.70528 0.19456 10.5728 0.60928 18.19136 11.11552 15.8976 21.43744-2.05312 9.25696-9.10848 14.42304-19.87584 14.42816-68.6336 0.01024-137.2672 0.00512-205.9008 0-1.24416 0-2.48832-0.02048-3.72736-0.1024-11.29472-0.74752-19.09248-11.84256-16.02048-22.76352 2.36544-8.41728 9.18016-13.17376 19.16928-13.184 34.52928-0.03072 69.05344-0.01536 103.5776-0.01536zM398.94016-19.17439999999999c-8.88832-0.06144-14.20288 7.22944-11.8016 16.03584 5.5552 20.35712 11.25376 40.66816 16.9216 60.99456 5.7088 20.45952 11.33056 40.93952 17.30048 61.32224a23.0144 23.0144 0 0 0 5.50912 9.4208c115.50208 115.64544 231.10656 231.18336 346.70592 346.73152 11.55072 11.54048 25.64608 11.50976 37.23776-0.07168a117022.9248 117022.9248 0 0 0 79.7184-79.7184c12.07296-12.08832 12.02176-25.57952-0.128-37.72928-115.28192-115.26656-230.57408-230.51776-345.82528-345.81504-3.34336-3.34336-7.00416-5.44768-11.74528-6.3232-43.40224-8.04864-86.77888-16.256-130.16576-24.40192-1.35168-0.26112-2.7392-0.3328-3.72736-0.44544z m443.0848 353.31584c-0.77312 1.34656-1.78176 4.34176-3.77344 6.3488a23996.90752 23996.90752 0 0 1-82.26816 82.37056c-4.78208 4.76672-11.62752 4.7616-16.31232 0.26112-4.81792-4.6336-5.03296-11.68384-0.13824-16.59904 27.48928-27.59168 55.05536-55.09632 82.59584-82.6368 3.77344-3.77344 8.20224-4.38272 12.91776-2.2784 4.61824 2.05824 6.70208 5.9392 6.97856 12.53376z"  horiz-adv-x="1024" />

    
    <glyph glyph-name="hezuojigou" unicode="&#59034;" d="M1476.93077 387.089c-39.078-12.933-78.201-25.632-117.465-37.957-16.014-5.019-23.88-0.467-30.23 17.835-10.411 29.902-20.262 60.039-29.903 90.222-30.883 96.572-61.556 193.237-92.3 289.879-1.284 4.015-2.871 7.983-3.851 12.068-3.829 15.804-1.378 22.62 13.632 28.176 37.07 13.68 74.49 26.331 111.815 39.264 3.525 1.214 7.377 1.494 11.088 2.194 12.046 1.844 16.691-5.299 19.772-15.29 33.662-109.434 67.3-218.868 101.31-328.186 7.914-25.42 17.228-50.398 26.029-75.516 4.412-12.535 2.287-18.674-9.898-22.69z m-210.559-14.567c1.798-5.112 2.405-10.668 3.548-16.013-0.303-17.671-9.897-30.253-22.643-39.8-11.438-8.568-23.53-3.292-33.988 4.037-33.941 23.74-68.28 46.99-101.45 71.805-84.013 62.887-167.583 126.381-251.082 189.922-26.262 19.982-51.986 40.665-77.57 61.487-41.599 33.825-86.488 33.404-132.685 12.419-6.21-2.825-11.975-12.232-13.306-19.446-7.983-43.092-31.537-72.084-72.714-86.627-17.415-6.14-34.292-14.38-52.126-18.768-19.96-4.949-38.797 1.307-52.967 16.41-13.119 13.96-10.34 30.463-2.614 46.244 8.147 16.667 19.982 32.26 24.534 49.815 7.026 27.218 10.574 55.58 13.119 83.662 2.03 22.807 0.28 45.917 0.443 68.91 0.21 26.845 14.006 39.918 39.66 45.45 31.141 6.7 61.417 17.25 92.184 25.701 34.035 9.338 68.093 18.745 102.408 26.892 8.824 2.077 19.538 1.89 28.012-1.144 115.667-41.318 230.913-83.803 346.72-124.677 21.616-7.634 33.451-21.173 40.314-41.482 27.732-82.122 55.278-164.29 83.336-246.296 12.442-36.346 26.005-72.295 38.867-108.5zM395.26477 591.39c-21.686-39.987-5.416-68.35 21.149-86.72 58.545-40.525 128.926-37.233 184.18 10.76 19.725 17.135 36.766 37.397 55.114 56.142 17.484 17.858 35.715 35.342 63.447 29.156 11.182-2.498 22.69-7.61 31.887-14.45 136.84-101.684 273.469-203.695 409.725-306.196 17.157-12.909 30.696-30.72 47.994-43.395 29.179-21.36 21.71-83.08-0.584-105.116-29.74-29.413-60.716-36.299-95.358-12.559-40.034 27.429-77.57 58.616-116.204 88.145-11.765 8.988-23.53 17.975-35.388 26.822-2.358 1.75-5.44 4.435-7.68 4.015-5.743-1.074-12.722-2.288-16.154-6.186-1.797-2.008 1.33-11.765 4.926-14.706 31.77-26.005 64.17-51.193 96.315-76.73 21.125-16.808 43.208-32.611 62.864-51.052 21.079-19.772 22.526-40.898 7.12-65.876-12.21-19.795-29.904-33.52-52.22-39.87-27.359-7.774-49.208 5.392-69.517 21.359-28.292 22.246-55.744 45.566-84.27 67.51-6.91 5.322-16.503 7.119-24.86 10.527-1.588-1.984-3.152-3.992-4.74-5.976 4.016-5.929 6.934-13.189 12.21-17.554 20.822-17.274 42.274-33.825 63.727-50.329 26.331-20.262 29.506-28.338 10.715-61.183-22.597-39.497-77.22-50.678-115.294-25.77-18.37 11.998-36.369 24.65-54.927 36.345-3.104 1.96-11.018 2.194-12.022 0.467-3.244-5.626-1.143-10.225 5.276-14.263 14.263-8.964 27.872-19.072 41.318-29.273 10.691-8.123 9.758-10.878 0.187-20.775-19.352-19.982-42.042-25.025-68.303-18.558-9.898 2.45-16.224 9.92-14.333 20.472 2.894 16.153 5.462 32.587 10.528 48.134 15.64 47.854-2.708 93.514-49.208 111.838-22.06 8.684-29.997 23.554-32.984 44.61-7.377 51.845-41.505 81.888-93.328 80.815-15.36-0.327-24.393 3.921-32.144 18.138-14.45 26.471-34.898 47.177-67.252 49.978-7.843 0.677-16.55 1.05-23.647-1.61-11.508-4.32-16.457 2.263-23.553 8.753-11.719 10.715-23.694 22.34-37.677 29.11-28.105 13.585-53.2 3.29-75.516-15.898-4.785-4.131-8.964-9.104-14.123-12.675-13.492-9.314-22.386-8.544-35.435 1.61-10.341 8.077-21.336 15.36-31.257 23.928-23.53 20.285-27.008 36.205-15.196 65.245 27.428 67.392 55.067 134.691 82.355 202.13 23.157 57.239 45.94 114.663 68.91 171.972 10.458 26.05 45.263 33.8 65.922 14.706 10.645-9.804 13.002-26.728 4.762-44.983-15.313-33.895-29.763-68.35-47.457-100.984z m-159.272-44.259c-26.915-62.49-53.48-125.12-80.045-187.774-7.54-17.811-15.173-22.69-33.498-15.78-36.953 13.935-73.532 28.945-109.971 44.282-13.282 5.579-15.383 13.61-9.034 29.553 26.168 65.595 52.243 131.213 79.018 196.528 27.405 66.903 55.58 133.501 83.452 200.194 6.607 15.85 21.897 22.993 36.65 16.41 37.28-16.644 74.442-33.591 111.511-50.749 6.466-2.988 15.127-5.112 13.866-15.897-1.377-4.832-2.194-9.92-4.178-14.496-29.18-67.462-58.686-134.762-87.771-202.27z m147.18-325.828c9.617-11.274 15.663-25.654 24.067-39.917 23.343 12.395 48.951 17.881 73.929-0.63 23.88-17.671 32.797-42.018 28.665-71.805 11.135 3.479 20.916 7.073 30.977 9.595 43.139 10.878 81.982-16.458 82.73-69.587 0.233-16.224-3.852-32.518-5.743-47.084 15.173 2.054 31.257 7.61 46.313 5.58 28.153-3.806 45.333-34.012 37.98-64.382-3.828-15.827-10.154-31.42-17.67-45.94-11.51-22.27-24.978-27.685-50.26-23.647-16.783 2.685-34.384 18.815-37.255 37.303-1.915 12.208-0.117 25.024 0.303 37.536 0.163 4.389 1.19 8.73 2.264 16.177-29.53-24.114-59.012-34.992-91.086-13.259-32.33 21.943-28.292 55.978-25.748 89.219-16.177-3.432-31.513-7.073-46.99-9.851-22.923-4.132-41.785 4.762-49.932 26.821-7.096 19.212-10.294 39.871-15.453 60.857-8.03 0.7-18.441 0.91-28.596 2.59-26.751 4.366-43.348 22.13-41.388 48.882 1.168 15.827 6.186 32.798 14.217 46.43 15.313 26.028 49.02 28.152 68.676 5.112z"  horiz-adv-x="1490" />

    
    <glyph glyph-name="cooperativere" unicode="&#59046;" d="M1023.6 292.20000000000005c-2.4 7-5.8 28-10 54.4-13 80-34.8 214-73 266.6l-0.6 0.8c-3.2 3.2-7 7-14.2 10.6l-0.8 0.4-0.8 0.2c-16.4 3.2-29.2 3.2-48.6 3.2-61.2 0-123-20.4-146-31.2-10.6 3.4-58.6 19.4-130 49.6-53 25-116.8 21.6-171.4-8.8-48 3.2-137.2 6.2-171.6 6.2-52.4 18.2-170 37-183.6 38-15.4 3.4-27.6-7.2-31.8-19.8C38 652.2 0 432.2 0 280.79999999999995 0 269 8 256.4 21 256c17.4-4.2 37.2-6.4 60.8-6.4 32.4 0 66.8 2 81.4 2.8 3.4 0.2 6.6 0.4 7 0.4 10.2 0 19.2 6 24.2 16l0.6 1.2v1.2c0.2 1.2 1.4 4.4 2.6 7.6 1.8 4.8 4.4 11.6 7.2 20.2l31-25.8c13.6-11.2 183-151.6 205.8-167.8 13-9.8 36.6-20.2 63.6-20.2h10l0.6 0.2c15.4 3 28.2 9 38 17.8 21-8.2 43-8.8 66.8-2l1 0.4c13.2 6.6 24.6 15.4 31.6 24.2 19.4-3.2 37.4-0.6 53.8 7.6l0.4 0.2c16.6 10 28.8 22.8 35.6 37.2 17.6 1.2 31 9.6 40.8 16.8l0.2 0.2c21.8 18.8 30.4 44.6 24.8 74.6l15 10.8c2.6-2.2 5.4-4 8.8-4.4 16.6-6.4 48-9.6 93-9.6 33.2 0 66.6 2.8 69.8 3.2 6 0 10 2.4 14 4.6 1.4 0.8 2.6 1.6 4.2 2.4l0.8 0.4 0.6 0.6c4 4 8 11.8 8 20v1l0.6 0.8z m-462 65.6c-11.6-11.6-9-27.8 0-36.8 3.4-3.4 93.8-87.8 130-120.8-2.6-4.6-6.4-6.4-11.4-9-10.2-5-20.4-5.6-24.8-1.2l-0.6 0.4c-29.4 22.8-106.6 91.2-115.8 103.2-4 6-11.2 9.6-19 9.6-7.6 0-14.4-3.2-18.4-8.8-5.6-4.2-8.8-11-8.8-18.4 0-7.6 3.4-14.4 9-18.6 7.8-9.6 36.6-35.2 76-70 9.8-8.6 19-16.8 26.8-23.6-1.8-1.4-3.8-2.8-6.6-4.2-10.2-5-26.8-2.6-37.8 5.6-26.8 23.4-63.2 57.2-84.4 84.2-4 6-11.2 9.6-19 9.6-8 0-15-3.6-19.2-9.8-9.6-14.4-9.2-29 1.2-36.4 20.2-20.2 44.8-44.8 68-65.8-10-2-26.6 2.8-35.6 8.8-12.2 9.2-108.2 86.6-202 164l-47.6 41.8c21.2 66.8 48.2 166.2 58.4 235.8 24.2 0 57-0.2 86.6-2.2-27-32-56-89.2-43.8-132.4 3.6-20.4 20-38.2 42-45.4 10-3 19.6-4.4 28.8-4.4 45 0 78.2 33.2 99.8 64.8 2.4 0.4 4.6 0.8 6.4 1.2 8.6 1.6 14.6 2.8 30 7.2 77.4-53.4 200.4-173 226.2-220 2.8-19.2-5.4-29.2-8-31.8-1.6-1.6-7.8-3.8-11.6-2.2-14 11.8-59.4 53.6-96.2 87.2-16.2 15-31.6 29-42.2 38.6l-0.8 0.6c-11.6 7.8-27.4 7.6-35.6-0.8z m-15.4 181.4c-7.6 3.8-15 3.8-21.6 3.8h-1l-10.4-3.4c-18.4-6.2-18.8-6.2-30.4-9.2h-5.6c-9 0-17-4.8-21-12.4-31.4-45.4-50.4-58.4-75-51.2-5.2 2.6-5.8 4.4-5.8 7.2v0.8l-0.2 0.8c-5.6 22.6 15 70.8 39.2 92.2l0.4 0.4c28 30.6 94.6 65 164 33.4 74.6-33.2 123.4-49.8 137.6-53.4 22-42 61-150.6 82.4-217.2l-17-12.8C733 386.6 615 493.6 546.6 539.2h-0.4z"  horiz-adv-x="1024" />

    
    <glyph glyph-name="dianzan" unicode="&#58895;" d="M890.005 521.221H680.29c-15.534 2.59-20.713 18.124-23.302 25.89V736.115c0 51.782-41.425 93.207-93.206 93.207-46.604 0-85.44-36.247-93.207-80.261-28.48-178.646-137.221-238.195-207.126-256.319 2.589-7.767 2.589-12.945 2.589-18.123v-502.281c0-10.356-2.59-20.713-7.768-31.07h507.46c49.192 10.357 82.85 28.48 106.152 77.673l106.152 372.827c20.712 67.316-12.946 132.043-88.029 129.454zM222.023-30.252v504.87c0 15.534-20.712 28.48-44.014 28.48h-69.905c-36.247 0-67.316-31.07-67.316-67.316v-424.609c0-38.836 28.48-69.905 67.316-69.905h69.905c23.302 0 44.014 12.945 44.014 28.48z m0 0"  horiz-adv-x="1024" />

    
    <glyph glyph-name="tianjia1" unicode="&#58915;" d="M791.7312-89.84064H232.25344c-107.0336 0-194.10944 87.05536-194.10944 194.06848V663.75168c0 107.01824 87.07072 194.08896 194.10944 194.08896h271.50848c29.94688 0 54.23104-24.2688 54.23104-54.2208 0-29.93664-24.28416-54.22592-54.23104-54.22592H232.25344c-47.23712 0-85.6576-38.4256-85.6576-85.64224v-559.51872c0-47.21664 38.4256-85.62688 85.6576-85.62688h559.47264c47.23712 0 85.67296 38.41024 85.67296 85.62688V388.48a54.20544 54.20544 0 0 0 54.22592 54.22592c29.93664 0 54.22592-24.2688 54.22592-54.22592v-284.25216c0.00512-107.01312-87.08608-194.06848-194.11968-194.06848zM931.63008 565.82144h-367.17568c-29.93664 0-54.21568 24.2688-54.21568 54.22592 0 29.93664 24.27904 54.2208 54.21568 54.2208h367.17568c29.93664 0 54.22592-24.28928 54.22592-54.2208 0-29.95712-24.28928-54.22592-54.22592-54.22592zM748.0576 382.2336c-29.97248 0-54.22592 24.28928-54.22592 54.2208V803.61984c0 29.952 24.25344 54.2208 54.22592 54.2208 29.93664 0 54.22592-24.2688 54.22592-54.2208v-367.16032c0-29.93664-24.28928-54.22592-54.22592-54.22592z"  horiz-adv-x="1024" />

    
    <glyph glyph-name="kongbaiye" unicode="&#58886;" d="M1172.48 336c0-11.52 8.96-20.48 20.48-20.48 11.52 0 20.48 8.96 20.48 20.48 0 11.52-8.96 20.48-20.48 20.48-3.84 0-7.04-0.64-10.24-2.56-6.4-3.2-10.24-10.24-10.24-17.92M15.36 499.2h-15.36c0-8.32 7.04-15.36 15.36-15.36s15.36 7.04 15.36 15.36c0 8.32-7.04 15.36-15.36 15.36-2.56 0-5.12-0.64-7.68-1.92-5.12-2.56-7.68-7.68-7.68-13.44M1089.28 512.64c0 17.92-14.08 32-32 32s-32-14.08-32-32 14.08-32 32-32c17.28 0.64 31.36 14.72 32 32z m-82.56 0c0 27.52 23.04 50.56 50.56 50.56s50.56-23.04 50.56-50.56c0-27.52-23.04-50.56-50.56-50.56s-50.56 23.68-50.56 50.56zM1091.84 843.52c0 17.92-14.08 32-32 32s-32-14.08-32-32 14.08-32 32-32c17.28 0 31.36 14.08 32 32z m-46.08 0c0 7.68 6.4 13.44 13.44 13.44s13.44-6.4 13.44-13.44-6.4-13.44-13.44-13.44-13.44 5.76-13.44 13.44z m172.8-232.32H1203.2c-5.76 0-10.24-4.48-10.24-10.24 0-5.76 4.48-10.24 10.24-10.24h15.36v-15.36c0-5.76 4.48-10.24 10.24-10.24 5.76 0 10.24 4.48 10.24 10.24v15.36h15.36c5.76 0 10.24 4.48 10.24 10.24 0 5.76-4.48 10.24-10.24 10.24h-15.36v15.36c0 5.76-4.48 10.24-10.24 10.24-5.76 0-10.24-4.48-10.24-10.24v-15.36zM106.88 176.64h-25.6c-4.48 0-8.32-3.84-8.32-8.32 0-5.12 3.2-8.32 8.32-8.32h25.6v-25.6c0-4.48 3.84-8.32 8.32-8.32 5.12 0 8.32 3.2 8.32 8.32v25.6h25.6c4.48 0 8.32 3.84 8.32 8.32 0 5.12-3.2 8.32-8.32 8.32h-25.6v25.6c0 4.48-3.84 8.32-8.32 8.32-5.12 0-8.32-3.2-8.32-8.32v-25.6zM409.6-47.36c0-21.76 88.32-39.04 196.48-39.04s196.48 17.28 196.48 39.04-88.32 39.04-196.48 39.04-196.48-17.92-196.48-39.04zM279.68 668.16h-72.96c-5.76 0-10.24 4.48-10.24 10.24 0 5.76 4.48 10.24 10.24 10.24h72.96c5.76 0 10.24-4.48 10.24-10.24 0-5.76-4.48-10.24-10.24-10.24z m94.72 119.68c-5.76 0-10.24 4.48-10.24 10.24v67.2c0 5.76 4.48 10.24 10.24 10.24 5.76 0 10.24-4.48 10.24-10.24v-67.2c-0.64-6.4-5.12-10.24-10.24-10.24z m-55.04-48c-2.56 0-5.12 1.28-7.04 3.2l-57.6 58.24c-3.84 3.84-3.84 10.24 0 14.08s10.24 3.84 14.08 0l58.24-58.24c3.84-3.84 3.84-10.24 0-14.08-2.56-1.92-5.12-3.2-7.68-3.2zM860.8 113.92c0-28.8-23.68-52.48-52.48-52.48h-414.08c-28.8 0-52.48 23.68-52.48 52.48v487.04c0 28.8 23.68 52.48 52.48 52.48h414.08c28.8 0 52.48-23.68 52.48-52.48v-487.04zM807.68 51.2h-414.08c-34.56 0-62.72 28.16-62.72 62.72v487.04c0 34.56 28.16 62.72 62.72 62.72h414.08c34.56 0 62.72-28.16 62.72-62.72v-487.04c0-33.92-28.16-62.72-62.72-62.72z m-414.08 592.64c-23.68 0-42.24-19.2-42.24-42.24v-487.04c0-23.68 19.2-42.24 42.24-42.24h414.08c23.68 0 42.24 19.2 42.24 42.24v486.4c0 23.68-19.2 42.24-42.24 42.24 0 0.64-414.08 0.64-414.08 0.64zM934.4 183.04c0-28.8-23.68-52.48-52.48-52.48H467.2c-28.8 0-52.48 23.68-52.48 52.48v486.4c0 28.8 23.68 52.48 52.48 52.48h414.08c28.8 0 52.48-23.68 52.48-52.48v-486.4zM881.28 722.56H467.2c-28.8 0-52.48-23.68-52.48-52.48v-48c0 28.8 23.68 52.48 52.48 52.48h414.08c28.8 0 52.48-23.68 52.48-52.48v48c0.64 28.8-23.04 52.48-52.48 52.48zM881.28 119.68H467.2c-34.56 0-62.72 28.16-62.72 62.72v487.04c0 34.56 28.16 62.72 62.72 62.72h414.08c34.56 0 62.72-28.16 62.72-62.72v-487.04c0-33.92-28.16-62.72-62.72-62.72z m-414.08 592.64c-23.68 0-42.24-19.2-42.24-42.24v-487.04c0-23.68 19.2-42.24 42.24-42.24h414.08c23.68 0 42.24 19.2 42.24 42.24v486.4c0 23.68-19.2 42.24-42.24 42.24l-414.08 0.64zM840.32 597.76H492.8c-5.76 0-10.24 4.48-10.24 9.6s4.48 10.24 10.24 10.24h347.52c5.76 0 10.24-4.48 10.24-10.24 0-5.76-5.12-9.6-10.24-9.6z m-121.6-377.6h-224.64c-5.76 0-10.24 4.48-10.24 10.24s4.48 10.24 10.24 10.24h225.28c5.76 0 10.24-4.48 10.24-10.24-1.28-5.76-5.12-10.24-10.88-10.24zM501.76 440.32c0-10.24 8.32-18.56 18.56-18.56 10.24 0 18.56 8.32 18.56 18.56 0 10.24-8.32 18.56-18.56 18.56-10.24 0-18.56-8.32-18.56-18.56z m308.48 1.92c0-10.24 8.32-18.56 18.56-18.56 10.24 0 18.56 8.32 18.56 18.56 0 10.24-8.32 18.56-18.56 18.56-9.6 0-18.56-8.32-18.56-18.56z m-62.08-104.32h-149.76c-5.76 0-10.24 4.48-10.24 10.24 0 5.76 4.48 10.24 10.24 10.24h149.76c5.76 0 10.24-4.48 10.24-10.24s-4.48-10.24-10.24-10.24z"  horiz-adv-x="1280" />

    


  </font>
</defs>
</svg>
